<?xml version="1.0" encoding="UTF-8"?>
<svg version="1.1" xmlns="http://www.w3.org/2000/svg" width="450" height="100">
<path d="M0 0 C148.5 0 297 0 450 0 C450 33 450 66 450 100 C301.5 100 153 100 0 100 C0 67 0 34 0 0 Z " fill="#FEFDFD" transform="translate(0,0)"/>
<path d="M0 0 C5.7734375 -0.1953125 5.7734375 -0.1953125 7.8125 1.5625 C9.33028768 4.67795892 9.67014996 7.56955958 10 11 C10.66 11 11.32 11 12 11 C12.20496094 10.37351562 12.40992188 9.74703125 12.62109375 9.1015625 C12.89050781 8.28429688 13.15992188 7.46703125 13.4375 6.625 C13.70433594 5.81289063 13.97117187 5.00078125 14.24609375 4.1640625 C15 2 15 2 16 0 C20.875 0.875 20.875 0.875 22 2 C22.08748207 3.92667507 22.10697334 5.85651861 22.09765625 7.78515625 C22.09443359 8.95498047 22.09121094 10.12480469 22.08789062 11.33007812 C22.07951172 12.56177734 22.07113281 13.79347656 22.0625 15.0625 C22.05798828 16.29806641 22.05347656 17.53363281 22.04882812 18.80664062 C22.03699608 21.87114117 22.02051173 24.93554721 22 28 C19.69 28 17.38 28 15 28 C14.67 26.35 14.34 24.7 14 23 C13.34 23.99 12.68 24.98 12 26 C10.0625 25.6875 10.0625 25.6875 8 25 C7.67 24.01 7.34 23.02 7 22 C6.67 23.98 6.34 25.96 6 28 C3.69 28 1.38 28 -1 28 C-1.14256667 18.60644064 -0.72492332 9.35927791 0 0 Z " fill="#151515" transform="translate(401,38)"/>
<path d="M0 0 C1.4540625 0.0309375 1.4540625 0.0309375 2.9375 0.0625 C4.2575 2.3725 5.5775 4.6825 6.9375 7.0625 C7.5975 4.7525 8.2575 2.4425 8.9375 0.0625 C10.9175 0.0625 12.8975 0.0625 14.9375 0.0625 C14.6075 9.3025 14.2775 18.5425 13.9375 28.0625 C11.6275 28.0625 9.3175 28.0625 6.9375 28.0625 C5.6175 24.4325 4.2975 20.8025 2.9375 17.0625 C2.6075 20.6925 2.2775 24.3225 1.9375 28.0625 C-0.3725 28.0625 -2.6825 28.0625 -5.0625 28.0625 C-5.09182572 24.87501971 -5.10940739 21.68757472 -5.125 18.5 C-5.13337891 17.60474609 -5.14175781 16.70949219 -5.15039062 15.78710938 C-5.16877049 10.76940587 -5.00966891 5.99705132 -4.0625 1.0625 C-3.0625 0.0625 -3.0625 0.0625 0 0 Z " fill="#EE5C59" transform="translate(155.0625,37.9375)"/>
<path d="M0 0 C2.8100346 1.79363911 4.50940468 3.01880935 6 6 C6.78273391 12.64205631 6.49856721 17.91372325 2.48046875 23.40625 C-0.2831004 26.38127959 -2.96702644 27.90368478 -7.0612793 28.09765625 C-8.11955933 28.08025391 -8.11955933 28.08025391 -9.19921875 28.0625 C-10.45347656 28.041875 -11.70773438 28.02125 -13 28 C-13.05845196 24.62507371 -13.09374742 21.25027913 -13.125 17.875 C-13.14175781 16.92367187 -13.15851563 15.97234375 -13.17578125 14.9921875 C-13.24150791 5.52754908 -13.24150791 5.52754908 -11 1 C-7.28985899 -0.23671367 -3.85561242 -0.56368603 0 0 Z " fill="#EE5C5A" transform="translate(80,38)"/>
<path d="M0 0 C3 2 3 2 5 5 C5.32235896 9.24852577 4.37299361 12.44050958 2 16 C2.27617533 17.94074861 2.27617533 17.94074861 3 20 C3.34060811 21.66519519 3.67558396 23.33157466 4 25 C0.25 28 0.25 28 -2 28 C-2.26554687 27.43410156 -2.53109375 26.86820313 -2.8046875 26.28515625 C-3.33449219 25.18494141 -3.33449219 25.18494141 -3.875 24.0625 C-4.22304688 23.33160156 -4.57109375 22.60070312 -4.9296875 21.84765625 C-5.8684977 19.83667541 -5.8684977 19.83667541 -8 19 C-7.979375 20.299375 -7.95875 21.59875 -7.9375 22.9375 C-7.91600546 24.29165633 -7.92851801 25.64756083 -8 27 C-9 28 -9 28 -12.0625 28.0625 C-13.031875 28.041875 -14.00125 28.02125 -15 28 C-15.14368684 19.28299826 -14.71961582 10.68679101 -14 2 C-9.20559312 0.43447939 -5.09775149 -0.66081964 0 0 Z " fill="#EF5D5A" transform="translate(39,38)"/>
<path d="M0 0 C2.96858157 2.20740681 3.82865791 3.48597373 5 7 C5.49352353 12.92228241 5.67145008 19.72291062 1.7421875 24.54296875 C-0.70925028 26.83397212 -2.80015959 27.95513787 -6.0625 28.6875 C-9.31132568 27.92713654 -11.08348468 26.88232232 -13.0859375 24.17578125 C-15.56090953 18.28450169 -14.81108294 11.24013382 -12.6875 5.375 C-12.130625 4.59125 -11.57375 3.8075 -11 3 C-10.608125 2.38125 -10.21625 1.7625 -9.8125 1.125 C-6.7381179 -0.78323716 -3.44749236 -0.63945423 0 0 Z " fill="#0C0C0C" transform="translate(373,38)"/>
<path d="M0 0 C3.125 2 3.125 2 5 5 C5.21153042 7.99001109 4.73445015 10.01323606 4 13 C3.34 13.66 2.68 14.32 2 15 C2.37083833 18.4117126 3.10858176 21.68901795 4 25 C0.25 28 0.25 28 -2 28 C-3.32 25.36 -4.64 22.72 -6 20 C-6.66 20 -7.32 20 -8 20 C-8.33 22.64 -8.66 25.28 -9 28 C-10.98 28 -12.96 28 -15 28 C-15.12852505 19.27457699 -14.79645684 10.68991301 -14 2 C-9.21178573 -0.09905872 -5.18609832 -0.88931289 0 0 Z " fill="#0C0C0C" transform="translate(352,38)"/>
<path d="M0 0 C3.125 2 3.125 2 5 5 C5.21153042 7.99001109 4.73445015 10.01323606 4 13 C3.34 13.66 2.68 14.32 2 15 C2.37083833 18.4117126 3.10858176 21.68901795 4 25 C0.25 28 0.25 28 -2 28 C-3.32 25.36 -4.64 22.72 -6 20 C-6.66 20 -7.32 20 -8 20 C-8.33 22.64 -8.66 25.28 -9 28 C-10.98 28 -12.96 28 -15 28 C-15.12852505 19.27457699 -14.79645684 10.68991301 -14 2 C-9.21178573 -0.09905872 -5.18609832 -0.88931289 0 0 Z " fill="#0C0C0C" transform="translate(225,38)"/>
<path d="M0 0 C3.125 2 3.125 2 5 5 C5.21153042 7.99001109 4.73445015 10.01323606 4 13 C3.34 13.66 2.68 14.32 2 15 C2.37083833 18.4117126 3.10858176 21.68901795 4 25 C0.25 28 0.25 28 -2 28 C-3.32 25.36 -4.64 22.72 -6 20 C-6.66 20 -7.32 20 -8 20 C-8.33 22.64 -8.66 25.28 -9 28 C-10.98 28 -12.96 28 -15 28 C-15.12852505 19.27457699 -14.79645684 10.68991301 -14 2 C-9.21178573 -0.09905872 -5.18609832 -0.88931289 0 0 Z " fill="#EF5D5A" transform="translate(143,38)"/>
<path d="M0 0 C3.32895042 0.89818851 4.32087173 2.66084164 6.0703125 5.55859375 C6.6015625 9.1171875 6.6015625 9.1171875 6.5703125 12.99609375 C6.580625 14.27355469 6.5909375 15.55101562 6.6015625 16.8671875 C5.99069854 21.1117937 4.75674628 23.25408553 2.0703125 26.55859375 C-1.44793261 28.90409049 -2.78744444 29.13850778 -6.9296875 28.55859375 C-10.41156446 25.85898871 -11.78276624 24.38993082 -12.55859375 20 C-12.53667969 18.71996094 -12.51476562 17.43992187 -12.4921875 16.12109375 C-12.49347656 14.84363281 -12.49476563 13.56617188 -12.49609375 12.25 C-11.31716281 4.56662248 -7.61048945 0.44852695 0 0 Z " fill="#0F0F0F" transform="translate(391.9296875,37.44140625)"/>
<path d="M0 0 C0.04254356 1.99954746 0.04080783 4.00041636 0 6 C-1 7 -1 7 -3.50390625 7.09765625 C-5.01791016 7.08025391 -5.01791016 7.08025391 -6.5625 7.0625 C-7.57441406 7.05347656 -8.58632812 7.04445313 -9.62890625 7.03515625 C-10.80259766 7.01775391 -10.80259766 7.01775391 -12 7 C-12 8.32 -12 9.64 -12 11 C-9.03 11 -6.06 11 -3 11 C-3 12.65 -3 14.3 -3 16 C-6.47325181 17.1577506 -9.36067448 17.06866652 -13 17 C-13 18.32 -13 19.64 -13 21 C-9.04 21 -5.08 21 -1 21 C-1 22.98 -1 24.96 -1 27 C-5.15626368 28.00926479 -9.04365094 28.10239579 -13.3125 28.0625 C-14.56675781 28.05347656 -15.82101563 28.04445313 -17.11328125 28.03515625 C-18.06589844 28.02355469 -19.01851563 28.01195313 -20 28 C-20.15178302 18.94361322 -19.69037426 10.02417777 -19 1 C-12.61773055 0.17648136 -6.43255401 -0.12086218 0 0 Z " fill="#EE5C59" transform="translate(127,38)"/>
<path d="M0 0 C0.04254356 1.99954746 0.04080783 4.00041636 0 6 C-1 7 -1 7 -3.50390625 7.09765625 C-5.01791016 7.08025391 -5.01791016 7.08025391 -6.5625 7.0625 C-7.57441406 7.05347656 -8.58632813 7.04445313 -9.62890625 7.03515625 C-10.80259766 7.01775391 -10.80259766 7.01775391 -12 7 C-12 8.32 -12 9.64 -12 11 C-9.03 11 -6.06 11 -3 11 C-3 12.65 -3 14.3 -3 16 C-6.47325181 17.1577506 -9.36067448 17.06866652 -13 17 C-13 18.32 -13 19.64 -13 21 C-9.04 21 -5.08 21 -1 21 C-1 22.98 -1 24.96 -1 27 C-5.15626368 28.00926479 -9.04365094 28.10239579 -13.3125 28.0625 C-14.56675781 28.05347656 -15.82101563 28.04445313 -17.11328125 28.03515625 C-18.06589844 28.02355469 -19.01851562 28.01195313 -20 28 C-20.15178302 18.94361322 -19.69037426 10.02417777 -19 1 C-12.61773055 0.17648136 -6.43255401 -0.12086218 0 0 Z " fill="#EE5C59" transform="translate(66,38)"/>
<path d="M0 0 C0.04254356 1.99954746 0.04080783 4.00041636 0 6 C-1 7 -1 7 -3.50390625 7.09765625 C-5.01791016 7.08025391 -5.01791016 7.08025391 -6.5625 7.0625 C-7.57441406 7.05347656 -8.58632813 7.04445313 -9.62890625 7.03515625 C-10.80259766 7.01775391 -10.80259766 7.01775391 -12 7 C-12 8.32 -12 9.64 -12 11 C-9.03 11 -6.06 11 -3 11 C-2.957279 12.66611905 -2.95936168 14.33382885 -3 16 C-4 17 -4 17 -6.06640625 17.09765625 C-6.89011719 17.08605469 -7.71382813 17.07445313 -8.5625 17.0625 C-9.38878906 17.05347656 -10.21507812 17.04445313 -11.06640625 17.03515625 C-12.02353516 17.01775391 -12.02353516 17.01775391 -13 17 C-13 18.32 -13 19.64 -13 21 C-9.04 21 -5.08 21 -1 21 C-1 22.98 -1 24.96 -1 27 C-10.405 27.495 -10.405 27.495 -20 28 C-20.11191923 18.93454225 -19.69103409 10.03280274 -19 1 C-12.61773055 0.17648136 -6.43255401 -0.12086218 0 0 Z " fill="#0E0E0E" transform="translate(324,38)"/>
<path d="M0 0 C0 2.31 0 4.62 0 7 C-5.445 7.495 -5.445 7.495 -11 8 C-11.33 8.99 -11.66 9.98 -12 11 C-9.36 11 -6.72 11 -4 11 C-4 12.65 -4 14.3 -4 16 C-6.70879335 17.35439668 -9.00933268 17.06501451 -12 17 C-12 18.32 -12 19.64 -12 21 C-8.37 21 -4.74 21 -1 21 C-1 22.98 -1 24.96 -1 27 C-7.04829486 27.89604368 -12.8894576 28.11269443 -19 28 C-19.02721831 24.9999376 -19.04694378 22.00012744 -19.0625 19 C-19.07087891 18.16082031 -19.07925781 17.32164063 -19.08789062 16.45703125 C-19.10824033 11.20680661 -18.76368207 6.19544338 -18 1 C-11.93303301 0.22959149 -6.11485027 -0.09706112 0 0 Z " fill="#0A0A0A" transform="translate(251,38)"/>
<path d="M0 0 C0.95003906 -0.03738281 1.90007812 -0.07476562 2.87890625 -0.11328125 C5.4375 0.3125 5.4375 0.3125 7.2421875 2.0546875 C9.22287661 5.79598915 9.33155971 9.20129103 8.4375 13.3125 C5.29434236 16.99229431 3.29612649 18.13246541 -1.4375 19.125 C-2.984375 19.2178125 -2.984375 19.2178125 -4.5625 19.3125 C-4.5625 21.9525 -4.5625 24.5925 -4.5625 27.3125 C-6.5425 27.3125 -8.5225 27.3125 -10.5625 27.3125 C-10.6875 21.5625 -10.6875 21.5625 -9.5625 19.3125 C-9.47941362 17.93701844 -9.45513984 16.55764204 -9.46484375 15.1796875 C-9.46806641 14.37402344 -9.47128906 13.56835938 -9.47460938 12.73828125 C-9.48298828 11.89652344 -9.49136719 11.05476563 -9.5 10.1875 C-9.50451172 9.33800781 -9.50902344 8.48851562 -9.51367188 7.61328125 C-9.52547126 5.51299091 -9.54340694 3.4127367 -9.5625 1.3125 C-6.32067249 0.45397524 -3.36233531 0.08691751 0 0 Z " fill="#060606" transform="translate(293.5625,38.6875)"/>
<path d="M0 0 C2.4375 1.5 2.4375 1.5 4 4 C4.32111824 6.75845833 4.18630402 9.20543968 4 12 C1.69 12 -0.62 12 -3 12 C-2.67 10.02 -2.34 8.04 -2 6 C-5.0352348 6.67475861 -5.0352348 6.67475861 -6.1796875 8.734375 C-7.13874367 11.38319681 -7.19893014 13.44065467 -7.125 16.25 C-7.09792969 17.58804688 -7.09792969 17.58804688 -7.0703125 18.953125 C-7.04710937 19.62859375 -7.02390625 20.3040625 -7 21 C-5.05925139 20.72382467 -5.05925139 20.72382467 -3 20 C-2.34 19.01 -1.68 18.02 -1 17 C0.32 17.33 1.64 17.66 3 18 C2.52048204 22.31566167 1.29764982 24.2019941 -2 27 C-4.88861709 28.44430855 -6.79647701 28.37688506 -10 28 C-12.60994982 25.91204014 -14.47259538 24.21708759 -15.8125 21.125 C-15.9053125 20.073125 -15.9053125 20.073125 -16 19 C-16.1546875 17.39125 -16.1546875 17.39125 -16.3125 15.75 C-15.82360237 9.88322845 -13.66274923 5.79756673 -9.6875 1.5 C-6.16106447 -0.46824309 -3.97974972 -0.57887269 0 0 Z " fill="#101010" transform="translate(268,38)"/>
<path d="M0 0 C0.78246094 -0.02578125 1.56492188 -0.0515625 2.37109375 -0.078125 C4.5625 0.25 4.5625 0.25 6.3359375 1.56640625 C8.15955814 4.06952884 7.76273449 6.24648259 7.5625 9.25 C5.2525 9.25 2.9425 9.25 0.5625 9.25 C0.5625 7.93 0.5625 6.61 0.5625 5.25 C-0.0975 5.25 -0.7575 5.25 -1.4375 5.25 C-0.38007119 8.95100082 0.5430843 10.23454669 3.625 12.6875 C6.5625 15.25 6.5625 15.25 7.6875 18.25 C7.5254739 22.13862639 6.27362843 23.53887157 3.5625 26.25 C0.53217558 27.76516221 -2.08864962 27.42028053 -5.4375 27.25 C-8.375 26.25 -8.375 26.25 -10.4375 25.25 C-10.0625 22.8125 -10.0625 22.8125 -9.4375 20.25 C-6.23687313 18.64968656 -3.71478194 20.21826309 -0.4375 21.25 C-1.5739705 17.84058849 -2.00347198 17.70750811 -4.9375 16 C-7.96641435 13.93086509 -8.37091475 13.45715412 -9.5625 9.75 C-9.42543544 5.91219218 -8.80427685 4.23038566 -6.4375 1.25 C-4.11063547 0.08656773 -2.59028587 0.05104012 0 0 Z " fill="#EF5E5B" transform="translate(189.4375,38.75)"/>
<path d="M0 0 C0 1.98 0 3.96 0 6 C-3.87684087 7.19287411 -6.91621923 8 -11 8 C-11 9.32 -11 10.64 -11 12 C-8.03 12 -5.06 12 -2 12 C-2 13.98 -2 15.96 -2 18 C-5.47325181 19.1577506 -8.36067448 19.06866652 -12 19 C-12 21.97 -12 24.94 -12 28 C-13.98 28 -15.96 28 -18 28 C-18.02913821 24.4375173 -18.04684529 20.87506546 -18.0625 17.3125 C-18.07087891 16.30509766 -18.07925781 15.29769531 -18.08789062 14.25976562 C-18.09111328 13.28330078 -18.09433594 12.30683594 -18.09765625 11.30078125 C-18.10289307 10.40528564 -18.10812988 9.50979004 -18.11352539 8.5871582 C-17.99840198 5.96358241 -17.58234285 3.55706947 -17 1 C-11.33357449 -0.22517308 -5.76291482 -0.09228867 0 0 Z " fill="#EF5E5B" transform="translate(106,38)"/>
<path d="M0 0 C4.875 0.875 4.875 0.875 6 2 C6.08748207 3.92667507 6.10697334 5.85651861 6.09765625 7.78515625 C6.09443359 8.95498047 6.09121094 10.12480469 6.08789062 11.33007812 C6.07951172 12.56177734 6.07113281 13.79347656 6.0625 15.0625 C6.05798828 16.29806641 6.05347656 17.53363281 6.04882812 18.80664062 C6.03699608 21.87114117 6.02051173 24.93554721 6 28 C3.69 28 1.38 28 -1 28 C-0.90234375 25.98177083 -0.8046875 23.96354167 -0.70703125 21.9453125 C-0.80371094 21.30335937 -0.90039062 20.66140625 -1 20 C-1.99 19.34 -2.98 18.68 -4 18 C-5.71999616 13.49601005 -4.34849504 10.5000246 -2.5625 6.1875 C-2.08941406 5.02605469 -1.61632812 3.86460938 -1.12890625 2.66796875 C-0.75636719 1.78753906 -0.38382812 0.90710937 0 0 Z " fill="#080808" transform="translate(417,38)"/>
<path d="M0 0 C2.31 0 4.62 0 7 0 C7.18451025 18.82004556 7.18451025 18.82004556 6 28 C3.69 28 1.38 28 -1 28 C-1.02929977 24.64585201 -1.0468989 21.29173747 -1.0625 17.9375 C-1.07087891 16.99455078 -1.07925781 16.05160156 -1.08789062 15.08007812 C-1.10581103 9.9369232 -0.89259611 5.06741573 0 0 Z " fill="#0C0C0C" transform="translate(275,38)"/>
<path d="M0 0 C0.93714922 3.11751998 1.05686895 5.74149909 0.87890625 8.984375 C0.83056641 9.91894531 0.78222656 10.85351562 0.73242188 11.81640625 C0.67634766 12.78449219 0.62027344 13.75257812 0.5625 14.75 C0.51029297 15.73355469 0.45808594 16.71710937 0.40429688 17.73046875 C0.27488563 20.15398849 0.13993095 22.57706864 0 25 C-0.33 25 -0.66 25 -1 25 C-1 22.69 -1 20.38 -1 18 C-5.29 18 -9.58 18 -14 18 C-14 16.68 -14 15.36 -14 14 C-10.7 13.67 -7.4 13.34 -4 13 C-4 11.35 -4 9.7 -4 8 C-6.97 8 -9.94 8 -13 8 C-13 6.68 -13 5.36 -13 4 C-6.565 3.505 -6.565 3.505 0 3 C0 2.01 0 1.02 0 0 Z " fill="#FDEFEE" transform="translate(67,41)"/>
<path d="M0 0 C4.27175119 -0.41879914 6.37598915 -0.41600723 10 2 C12.35130971 5.52696456 12.44413869 7.02445853 11.6640625 11.0625 C10.68924326 13.90667849 9.0716926 15.8614786 7 18 C4 16 4 16 3 13 C1.68 13 0.36 13 -1 13 C-1 11.02 -1 9.04 -1 7 C2.465 6.505 2.465 6.505 6 6 C6 5.34 6 4.68 6 4 C5.01 3.67 4.02 3.34 3 3 C3 2.34 3 1.68 3 1 C2.01 0.67 1.02 0.34 0 0 Z " fill="#EF615E" transform="translate(32,38)"/>
<path d="M0 0 C4.79883879 -0.47047439 7.96832031 -0.660275 12.125 2 C14.32177301 5.51483682 14.42961927 7.0996179 13.6640625 11.0625 C12.68924326 13.90667849 11.0716926 15.8614786 9 18 C8.01 17.67 7.02 17.34 6 17 C5.67 15.35 5.34 13.7 5 12 C3.68 12.33 2.36 12.66 1 13 C1 11.02 1 9.04 1 7 C2.99954746 6.95745644 5.00041636 6.95919217 7 7 C7.33 7.33 7.66 7.66 8 8 C8 6.68 8 5.36 8 4 C7.01 3.67 6.02 3.34 5 3 C5 2.34 5 1.68 5 1 C3.35 1 1.7 1 0 1 C0 0.67 0 0.34 0 0 Z " fill="#212121" transform="translate(343,38)"/>
<path d="M0 0 C4.79883879 -0.47047439 7.96832031 -0.660275 12.125 2 C14.32177301 5.51483682 14.42961927 7.0996179 13.6640625 11.0625 C12.68924326 13.90667849 11.0716926 15.8614786 9 18 C8.01 17.67 7.02 17.34 6 17 C5.67 15.35 5.34 13.7 5 12 C3.68 12.33 2.36 12.66 1 13 C1 11.02 1 9.04 1 7 C2.99954746 6.95745644 5.00041636 6.95919217 7 7 C7.33 7.33 7.66 7.66 8 8 C8 6.68 8 5.36 8 4 C7.01 3.67 6.02 3.34 5 3 C5 2.34 5 1.68 5 1 C3.35 1 1.7 1 0 1 C0 0.67 0 0.34 0 0 Z " fill="#212121" transform="translate(216,38)"/>
<path d="M0 0 C2.97 0 5.94 0 9 0 C9.042721 1.66611905 9.04063832 3.33382885 9 5 C8 6 8 6 5.93359375 6.09765625 C5.10988281 6.08605469 4.28617187 6.07445312 3.4375 6.0625 C2.61121094 6.05347656 1.78492188 6.04445313 0.93359375 6.03515625 C0.29550781 6.02355469 -0.34257812 6.01195312 -1 6 C-1.33 6.99 -1.66 7.98 -2 9 C-2.66 9 -3.32 9 -4 9 C-4 7.02 -4 5.04 -4 3 C-3.01 2.67 -2.02 2.34 -1 2 C-0.67 1.34 -0.34 0.68 0 0 Z " fill="#1B1B1B" transform="translate(312,49)"/>
<path d="M0 0 C0.99 0.33 1.98 0.66 3 1 C4.09644404 6.94457613 4.41029848 10.67993436 1 16 C0.01 16 -0.98 16 -2 16 C-2.05402274 13.89611431 -2.09280256 11.79183286 -2.125 9.6875 C-2.14820313 8.51574219 -2.17140625 7.34398437 -2.1953125 6.13671875 C-2 3 -2 3 0 0 Z " fill="#EAEAEA" transform="translate(389,43)"/>
<path d="M0 0 C0.99 0.33 1.98 0.66 3 1 C3.05449838 2.72880982 3.09301688 4.45812712 3.125 6.1875 C3.14820313 7.15042969 3.17140625 8.11335938 3.1953125 9.10546875 C2.9913544 12.12812778 2.26874632 14.26769985 1 17 C0.01 16.67 -0.98 16.34 -2 16 C-2.05423638 14.08364783 -2.09289963 12.16685075 -2.125 10.25 C-2.14820313 9.18265625 -2.17140625 8.1153125 -2.1953125 7.015625 C-2.00487687 4.07529894 -1.52670104 2.47638122 0 0 Z " fill="#EFEFEF" transform="translate(368,43)"/>
<path d="M0 0 C0.33 0 0.66 0 1 0 C1.76636091 3.46089679 2.17149371 6.76077488 2.31640625 10.30078125 C2.35830078 11.27724609 2.40019531 12.25371094 2.44335938 13.25976562 C2.48267578 14.26716797 2.52199219 15.27457031 2.5625 16.3125 C2.60568359 17.33923828 2.64886719 18.36597656 2.69335938 19.42382812 C2.79906825 21.94909569 2.90116468 24.47445562 3 27 C1.68 27.33 0.36 27.66 -1 28 C-2.25709036 24.22872893 -1.60201239 21.93078679 -1 18 C-0.74871919 14.85728748 -0.5922748 11.71127916 -0.4375 8.5625 C-0.39431641 7.73556641 -0.35113281 6.90863281 -0.30664062 6.05664062 C-0.20161967 4.03790451 -0.10041441 2.01897049 0 0 Z " fill="#B9B9B9" transform="translate(282,38)"/>
<path d="M0 0 C1.65 0 3.3 0 5 0 C5.62572422 7.97798378 5.62572422 7.97798378 3.125 12.0625 C1 14 1 14 -1 14 C-0.67 9.38 -0.34 4.76 0 0 Z " fill="#FEF8F8" transform="translate(74,45)"/>
<path d="M0 0 C2.625 0.375 2.625 0.375 5 1 C5.22692276 4.32820054 5.32162419 6.41801336 3.6875 9.375 C2 11 2 11 -1 11 C-1.22174933 9.54364629 -1.42698698 8.08477044 -1.625 6.625 C-1.74101562 5.81289063 -1.85703125 5.00078125 -1.9765625 4.1640625 C-1.98429688 3.44992188 -1.99203125 2.73578125 -2 2 C-1.34 1.34 -0.68 0.68 0 0 Z " fill="#EF6461" transform="translate(173,35)"/>
<path d="M0 0 C0.33 0 0.66 0 1 0 C1 2.97 1 5.94 1 9 C0.34 9 -0.32 9 -1 9 C-1.33 10.32 -1.66 11.64 -2 13 C-2.66 13 -3.32 13 -4 13 C-4 12.34 -4 11.68 -4 11 C-4.99 10.67 -5.98 10.34 -7 10 C-6.67 7.36 -6.34 4.72 -6 2 C-5.34 2.33 -4.68 2.66 -4 3 C-3.375 5.5625 -3.375 5.5625 -3 8 C-2.01 7.67 -1.02 7.34 0 7 C0 4.69 0 2.38 0 0 Z " fill="#444444" transform="translate(377,45)"/>
<path d="M0 0 C0.33 0 0.66 0 1 0 C1.09038099 5.15171623 0.84681133 9.91913204 0 15 C-0.99 15 -1.98 15 -3 15 C-3.0984702 10.86425173 -2.77403558 7.06368679 -2 3 C-1.34 3 -0.68 3 0 3 C0 2.01 0 1.02 0 0 Z " fill="#303030" transform="translate(281,48)"/>
<path d="M0 0 C0.33 0 0.66 0 1 0 C1.33 2.64 1.66 5.28 2 8 C5.96697886 9.80317221 9.6822542 10.49202991 14 11 C14 11.33 14 11.66 14 12 C9.38 12 4.76 12 0 12 C0 8.04 0 4.08 0 0 Z " fill="#F17875" transform="translate(107,54)"/>
<path d="M0 0 C0.33 0 0.66 0 1 0 C1.33 2.64 1.66 5.28 2 8 C5.96697886 9.80317221 9.6822542 10.49202991 14 11 C14 11.33 14 11.66 14 12 C9.38 12 4.76 12 0 12 C0 8.04 0 4.08 0 0 Z " fill="#F17875" transform="translate(46,54)"/>
<path d="M0 0 C1.32 0.33 2.64 0.66 4 1 C4 1.66 4 2.32 4 3 C4.66 3 5.32 3 6 3 C6 4.32 6 5.64 6 7 C5.34 7 4.68 7 4 7 C4 7.66 4 8.32 4 9 C5.98 9 7.96 9 10 9 C10 9.33 10 9.66 10 10 C7.69 10 5.38 10 3 10 C2.01 6.7 1.02 3.4 0 0 Z " fill="#F06764" transform="translate(159,56)"/>
<path d="M0 0 C0.99 0.33 1.98 0.66 3 1 C3.125 3.875 3.125 3.875 3 7 C2.34 7.66 1.68 8.32 1 9 C1 8.34 1 7.68 1 7 C0.01 7.33 -0.98 7.66 -2 8 C-2 7.01 -2 6.02 -2 5 C-2.66 5 -3.32 5 -4 5 C-4 4.34 -4 3.68 -4 3 C-3.01 2.67 -2.02 2.34 -1 2 C-0.67 1.34 -0.34 0.68 0 0 Z " fill="#3D3D3D" transform="translate(395,51)"/>
<path d="M0 0 C1.65 0 3.3 0 5 0 C5.33 1.32 5.66 2.64 6 4 C2.25 7 2.25 7 0 7 C0 4.69 0 2.38 0 0 Z " fill="#E6E6E6" transform="translate(290,45)"/>
<path d="M0 0 C-0.1875 2.375 -0.1875 2.375 -1 5 C-3.5625 6.3125 -3.5625 6.3125 -6 7 C-6 5.02 -6 3.04 -6 1 C-3 0 -3 0 0 0 Z " fill="#FCE4E3" transform="translate(37,44)"/>
<path d="M0 0 C0.66 0.33 1.32 0.66 2 1 C1.88658509 3.48020497 1.75985314 5.95844969 1.625 8.4375 C1.5940625 9.14455078 1.563125 9.85160156 1.53125 10.58007812 C1.42719371 12.39239188 1.22080108 14.19817988 1 16 C0.34 16.33 -0.32 16.66 -1 17 C-1.10477512 11.21408489 -0.99250545 5.70690634 0 0 Z " fill="#7D7D7D" transform="translate(275,38)"/>
<path d="M0 0 C0.33 0 0.66 0 1 0 C1.04125 1.258125 1.0825 2.51625 1.125 3.8125 C1.30764489 6.00989526 1.30764489 6.00989526 2 8 C4.91841857 10.08632697 4.91841857 10.08632697 8 11 C8 11.33 8 11.66 8 12 C5.36 12 2.72 12 0 12 C0 8.04 0 4.08 0 0 Z " fill="#303030" transform="translate(304,54)"/>
<path d="M0 0 C0.33 0 0.66 0 1 0 C2.12880057 3.31114834 3.21302675 6.58978257 4 10 C2.02 10 0.04 10 -2 10 C-2.17942163 6.05272412 -2.09350689 3.4019487 0 0 Z " fill="#0E0E0E" transform="translate(285,56)"/>
<path d="M0 0 C0.33 1.32 0.66 2.64 1 4 C0.01 4.495 0.01 4.495 -1 5 C-1 5.99 -1 6.98 -1 8 C-1 8.99 -1 9.98 -1 11 C-3.475 10.01 -3.475 10.01 -6 9 C-5.52797514 4.75177626 -3.03344482 2.80010291 0 0 Z " fill="#161616" transform="translate(297,46)"/>
<path d="M0 0 C0.99 0 1.98 0 3 0 C3.29296875 5.95703125 3.29296875 5.95703125 3 8 C2.01 8.99 1.02 9.98 0 11 C0 7.37 0 3.74 0 0 Z " fill="#BFBFBF" transform="translate(398,45)"/>
<path d="M0 0 C1.98 0 3.96 0 6 0 C5.25 2.4375 5.25 2.4375 4 5 C1.875 5.8125 1.875 5.8125 0 6 C0 4.02 0 2.04 0 0 Z " fill="#E9E9E9" transform="translate(344,45)"/>
<path d="M0 0 C1.98 0 3.96 0 6 0 C5.25 2.4375 5.25 2.4375 4 5 C1.875 5.8125 1.875 5.8125 0 6 C0 4.02 0 2.04 0 0 Z " fill="#E9E9E9" transform="translate(217,45)"/>
<path d="M0 0 C1.98 0 3.96 0 6 0 C5.25 2.4375 5.25 2.4375 4 5 C1.875 5.8125 1.875 5.8125 0 6 C0 4.02 0 2.04 0 0 Z " fill="#FDEFEF" transform="translate(135,45)"/>
<path d="M0 0 C2.97 0.495 2.97 0.495 6 1 C6 1.66 6 2.32 6 3 C6.99 3.33 7.98 3.66 9 4 C6.69 4 4.38 4 2 4 C2 3.34 2 2.68 2 2 C1.34 2 0.68 2 0 2 C0 1.34 0 0.68 0 0 Z " fill="#313131" transform="translate(233,62)"/>
<path d="M0 0 C0.33 0 0.66 0 1 0 C0.67 2.31 0.34 4.62 0 7 C-1.65 7.33 -3.3 7.66 -5 8 C-4 6 -4 6 -2.5 4.5625 C-0.74916008 2.9622647 -0.74916008 2.9622647 0 0 Z " fill="#323232" transform="translate(376,54)"/>
<path d="M0 0 C0.33 0.99 0.66 1.98 1 3 C-0.4375 5.1875 -0.4375 5.1875 -2 7 C-2.66 6.34 -3.32 5.68 -4 5 C-3.625 2.875 -3.625 2.875 -3 1 C-2.34 1.33 -1.68 1.66 -1 2 C-0.67 1.34 -0.34 0.68 0 0 Z " fill="#F06F6C" transform="translate(85,52)"/>
</svg>
